REM DIRINDEX 1\2\6,1\2\7,1\2\8,1\3\9,1\3\10,1\3\11,1\4\12,1\4\13,1\4\14,1\5\15,1\5\16,1\5\17,1\5\18
REM DIRNAME folder01,folder02,folder03,folder04,folder05,folder06,folder07,folder08,folder09,folder10,folder11,folder12,folder13,folder14,folder15,folder16,folder17,folder18
TITLE ""
FILE "" MP3
  TRACK 01 AUDIO
    TITLE "16:cjc019_6017"
    INDEX 01 00:00:00
  TRACK 02 AUDIO
    TITLE "0:"
    INDEX 01 00:00:74
  TRACK 03 AUDIO
    TITLE "18:cjc019_6018"
    INDEX 01 00:01:60
  TRACK 04 AUDIO
    TITLE "0:"
    INDEX 01 00:04:29
  TRACK 05 AUDIO
    TITLE "17:cjc019_6019"
    INDEX 01 00:05:07
  TRACK 06 AUDIO
    TITLE "0:"
    INDEX 01 00:06:20
  TRACK 07 AUDIO
    TITLE "16:cjc019_6020"
    INDEX 01 00:08:01
  TRACK 08 AUDIO
    TITLE "0:"
    INDEX 01 00:09:16
  TRACK 09 AUDIO
    TITLE "18:cjc019_6021"
    INDEX 01 00:10:04
  TRACK 10 AUDIO
    TITLE "0:"
    INDEX 01 00:14:74
  TRACK 11 AUDIO
    TITLE "17:cjc019_6022"
    INDEX 01 00:15:52
  TRACK 12 AUDIO
    TITLE "0:"
    INDEX 01 00:16:71
  TRACK 13 AUDIO
    TITLE "16:cjc019_6023"
    INDEX 01 00:18:56
  TRACK 14 AUDIO
    TITLE "0:"
    INDEX 01 00:20:00
  TRACK 15 AUDIO
    TITLE "18:cjc019_6024"
    INDEX 01 00:20:51
  TRACK 16 AUDIO
    TITLE "0:"
    INDEX 01 00:22:74
  TRACK 17 AUDIO
    TITLE "17:cjc019_6025"
    INDEX 01 00:23:48
  TRACK 18 AUDIO
    TITLE "0:"
    INDEX 01 00:24:72
  TRACK 19 AUDIO
    TITLE "16:cjc019_6026"
    INDEX 01 00:26:54
  TRACK 20 AUDIO
    TITLE "0:"
    INDEX 01 00:27:59
  TRACK 21 AUDIO
    TITLE "18:cjc019_6027"
    INDEX 01 00:28:41
  TRACK 22 AUDIO
    TITLE "0:"
    INDEX 01 00:31:31
  TRACK 23 AUDIO
    TITLE "17:cjc019_6028"
    INDEX 01 00:32:09
  TRACK 24 AUDIO
    TITLE "0:"
    INDEX 01 00:33:21
  TRACK 25 AUDIO
    TITLE "16:cjc019_6029"
    INDEX 01 00:35:00
  TRACK 26 AUDIO
    TITLE "0:"
    INDEX 01 00:36:36
  TRACK 27 AUDIO
    TITLE "18:cjc019_6030"
    INDEX 01 00:37:20
  TRACK 28 AUDIO
    TITLE "0:"
    INDEX 01 00:41:08
  TRACK 29 AUDIO
    TITLE "17:cjc019_6031"
    INDEX 01 00:41:59
  TRACK 30 AUDIO
    TITLE "0:"
    INDEX 01 00:43:23
  TRACK 31 AUDIO
    TITLE "16:cjc019_6032"
    INDEX 01 00:45:02
  TRACK 32 AUDIO
    TITLE "0:"
    INDEX 01 00:46:13
  TRACK 33 AUDIO
    TITLE "18:cjc019_6033"
    INDEX 01 00:46:72
  TRACK 34 AUDIO
    TITLE "0:"
    INDEX 01 00:51:50
  TRACK 35 AUDIO
    TITLE "17:cjc019_6034"
    INDEX 01 00:52:30
  TRACK 36 AUDIO
    TITLE "0:"
    INDEX 01 00:53:43
  TRACK 37 AUDIO
    TITLE "16:cjc019_6035"
    INDEX 01 00:55:22
  TRACK 38 AUDIO
    TITLE "0:"
    INDEX 01 00:56:47
  TRACK 39 AUDIO
    TITLE "18:cjc019_6036"
    INDEX 01 00:57:35
  TRACK 40 AUDIO
    TITLE "0:"
    INDEX 01 01:01:50
  TRACK 41 AUDIO
    TITLE "17:cjc019_6037"
    INDEX 01 01:02:32
  TRACK 42 AUDIO
    TITLE "0:"
    INDEX 01 01:03:53
  TRACK 43 AUDIO
    TITLE "16:cjc019_6038"
    INDEX 01 01:05:40
  TRACK 44 AUDIO
    TITLE "0:"
    INDEX 01 01:06:59
  TRACK 45 AUDIO
    TITLE "18:cjc019_6039"
    INDEX 01 01:07:41
  TRACK 46 AUDIO
    TITLE "0:"
    INDEX 01 01:11:17
  TRACK 47 AUDIO
    TITLE "17:cjc019_6040"
    INDEX 01 01:11:72
  TRACK 48 AUDIO
    TITLE "0:"
    INDEX 01 01:13:20
  TRACK 49 AUDIO
    TITLE "16:cjc019_6041"
    INDEX 01 01:15:05
  TRACK 50 AUDIO
    TITLE "0:"
    INDEX 01 01:16:44
  TRACK 51 AUDIO
    TITLE "18:cjc019_6042"
    INDEX 01 01:17:22
  TRACK 52 AUDIO
    TITLE "0:"
    INDEX 01 01:22:23
  TRACK 53 AUDIO
    TITLE "17:cjc019_6043"
    INDEX 01 01:23:03
  TRACK 54 AUDIO
    TITLE "0:"
    INDEX 01 01:24:49
  TRACK 55 AUDIO
    TITLE "16:cjc019_6044"
    INDEX 01 01:26:30
  TRACK 56 AUDIO
    TITLE "0:"
    INDEX 01 01:27:44
  TRACK 57 AUDIO
    TITLE "18:cjc019_6045"
    INDEX 01 01:28:27
  TRACK 58 AUDIO
    TITLE "0:"
    INDEX 01 01:31:34
  TRACK 59 AUDIO
    TITLE "17:cjc019_6046"
    INDEX 01 01:32:10
  TRACK 60 AUDIO
    TITLE "0:"
    INDEX 01 01:33:31
  TRACK 61 AUDIO
    TITLE "16:cjc019_6047"
    INDEX 01 01:35:14
  TRACK 62 AUDIO
    TITLE "0:"
    INDEX 01 01:36:41
  TRACK 63 AUDIO
    TITLE "18:cjc019_6048"
    INDEX 01 01:37:19
  TRACK 64 AUDIO
    TITLE "0:"
    INDEX 01 01:38:53
  TRACK 65 AUDIO
    TITLE "17:cjc019_6049"
    INDEX 01 01:39:29
  TRACK 66 AUDIO
    TITLE "0:"
    INDEX 01 01:40:52
  TRACK 67 AUDIO
    TITLE "16:cjc019_6050"
    INDEX 01 01:42:31
  TRACK 68 AUDIO
    TITLE "0:"
    INDEX 01 01:43:60
  TRACK 69 AUDIO
    TITLE "18:cjc019_6051"
    INDEX 01 01:44:40
  TRACK 70 AUDIO
    TITLE "0:"
    INDEX 01 01:46:18
  TRACK 71 AUDIO
    TITLE "17:cjc019_6052"
    INDEX 01 01:46:65
  TRACK 72 AUDIO
    TITLE "0:"
    INDEX 01 01:48:20
  TRACK 73 AUDIO
    TITLE "16:cjc019_6053"
    INDEX 01 01:50:02
  TRACK 74 AUDIO
    TITLE "0:"
    INDEX 01 01:51:07
  TRACK 75 AUDIO
    TITLE "18:cjc019_6054"
    INDEX 01 01:51:68
  TRACK 76 AUDIO
    TITLE "0:"
    INDEX 01 01:53:27
  TRACK 77 AUDIO
    TITLE "17:cjc019_6055"
    INDEX 01 01:54:13
  TRACK 78 AUDIO
    TITLE "0:"
    INDEX 01 01:55:22
  TRACK 79 AUDIO
    TITLE "16:cjc019_6056"
    INDEX 01 01:57:04
  TRACK 80 AUDIO
    TITLE "0:"
    INDEX 01 01:58:07
  TRACK 81 AUDIO
    TITLE "18:cjc019_6057"
    INDEX 01 01:58:66
  TRACK 82 AUDIO
    TITLE "0:"
    INDEX 01 02:01:35
  TRACK 83 AUDIO
    TITLE "17:cjc019_6058"
    INDEX 01 02:02:03
  TRACK 84 AUDIO
    TITLE "0:"
    INDEX 01 02:03:06
  TRACK 85 AUDIO
    TITLE "16:cjc019_6059"
    INDEX 01 02:04:64
  TRACK 86 AUDIO
    TITLE "0:"
    INDEX 01 02:05:74
  TRACK 87 AUDIO
    TITLE "18:cjc019_6060"
    INDEX 01 02:06:59
  TRACK 88 AUDIO
    TITLE "0:"
    INDEX 01 02:10:04
  TRACK 89 AUDIO
    TITLE "17:cjc019_6061"
    INDEX 01 02:10:49
  TRACK 90 AUDIO
    TITLE "0:"
    INDEX 01 02:11:63
  TRACK 91 AUDIO
    TITLE "16:cjc019_6062"
    INDEX 01 02:13:42
  TRACK 92 AUDIO
    TITLE "0:"
    INDEX 01 02:14:49
  TRACK 93 AUDIO
    TITLE "18:cjc019_6063"
    INDEX 01 02:15:35
  TRACK 94 AUDIO
    TITLE "0:"
    INDEX 01 02:18:23
  TRACK 95 AUDIO
    TITLE "17:cjc019_6064"
    INDEX 01 02:19:01
  TRACK 96 AUDIO
    TITLE "0:"
    INDEX 01 02:20:18
  TRACK 97 AUDIO
    TITLE "16:cjc019_6065"
    INDEX 01 02:21:73
  TRACK 98 AUDIO
    TITLE "0:"
    INDEX 01 02:23:17
  TRACK 99 AUDIO
    TITLE "18:cjc019_6066"
    INDEX 01 02:23:72
  TRACK 100 AUDIO
    TITLE "0:"
    INDEX 01 02:25:31
  TRACK 101 AUDIO
    TITLE "17:cjc019_6067"
    INDEX 01 02:26:03
  TRACK 102 AUDIO
    TITLE "0:"
    INDEX 01 02:27:30
  TRACK 103 AUDIO
    TITLE "16:cjc019_6068"
    INDEX 01 02:29:13
  TRACK 104 AUDIO
    TITLE "0:"
    INDEX 01 02:30:38
  TRACK 105 AUDIO
    TITLE "18:cjc019_6069"
    INDEX 01 02:31:16
  TRACK 106 AUDIO
    TITLE "0:"
    INDEX 01 02:32:65
  TRACK 107 AUDIO
    TITLE "17:cjc019_6070"
    INDEX 01 02:33:46
  TRACK 108 AUDIO
    TITLE "0:"
    INDEX 01 02:35:04
